<svg xmlns="http://www.w3.org/2000/svg" width="120" height="15.552"><g fill-rule="evenodd" clip-rule="evenodd" fill="#444"><path d="M13.012 7.52c-.523.051-.786.132-1.021.083-.232-.049-.438-.229-.656-.352.157-.237.265-.596.483-.685.415-.168.909-.132 1.339-.273.471-.154.981-.326 1.348-.64 1.678-1.437 3.284-2.958 4.975-4.378.626-.525 1.416-.856 2.131-1.275l.326.349c-.309.425-.571.897-.938 1.266-1.254 1.261-2.546 2.483-3.818 3.726-.193.188-.355.407-.681.786 1.333-.143 2.43-.252 3.526-.379 5.247-.609 10.506-1.03 15.793-.941 1.632.027 3.266.139 4.891.295.589.057 1.154.356 1.73.545l-.046.279c-.407.045-.814.132-1.221.128-2.693-.023-5.388-.141-8.079-.08-2.721.062-5.44.266-8.156.461-2.774.199-5.55.408-8.31.737-.709.084-1.5.5-2.011 1.007-1.301 1.289-2.471 2.713-3.678 4.095-.185.212-.325.479-.428.742-.348.895.219 1.704 1.115 1.428 1.493-.458 2.929-1.109 4.375-1.713.157-.066.275-.347.318-.549.415-1.906 1.789-2.938 3.422-3.685.713-.326 1.729.008 2.031.508.338.561.204 1.631-.44 2.121-.646.492-1.436.792-2.152 1.191-.283.159-.54.363-.81.548.278.208.532.547.838.603 2.04.372 4.03.259 5.727-1.09.984-.783 1.884-1.675 2.779-2.562.941-.933 2.007-1.514 3.364-1.455.847.038 1.311.533.971 1.29-.35.779-.956 1.452-1.499 2.132-.337.421-1.144.686-.752 1.323.158.257.974.194 1.475.141 1.681-.182 3.027-1.051 4.373-2.038 1.257-.922 2.679-1.642 4.096-2.31.451-.213 1.271-.179 1.646.105.617.47.406 1.273.057 1.893-.327.581-.775 1.094-1.084 1.733 1.028-.604 2.037-1.242 3.089-1.8.603-.32 1.26-.886 1.972-.289.707.593.184 1.265-.017 1.895-.32 1.004-.108 1.271.956 1.093.562-.095 1.115-.261 1.662-.428.171-.053.404-.187.447-.333.582-1.953 2.22-2.819 3.805-3.737 1.018-.59 2.094-.899 3.292-.677.844.156 1.344.572 1.393 1.471.011.2.126.546.235.564 1.083.171.567.793.34 1.256-.172.351-.49.631-.747.938-.392.471-.244.771.289.966.842.306 1.749-.084 2.169-.914.141-.279.307-.559.517-.787 1.995-2.178 3.94-4.408 6.031-6.489 1.087-1.082 2.392-1.973 3.701-2.785.356-.221 1.138.062 1.615.318.169.091.175.884-.016 1.189-1.642 2.638-3.832 4.703-6.699 5.965-1.111.489-2.288.881-2.927 1.99-.272.474-.294 1.091-.43 1.644.506.113 1.025.366 1.516.318 2.68-.263 4.981-1.237 6.868-3.306.892-.977 2.24-1.556 3.432-2.226.248-.139.716.116 1.082.189-.11.402-.127.87-.352 1.193-.445.643-1.138 1.138-1.487 1.818-.502.973-.011 1.848 1.061 1.898 1.1.052 2.213-.114 3.316-.222.428-.042.637-.289.545-.778-.062-.329-.105-.742.04-1.013.188-.352.573-.598.874-.889.243.271.505.527.723.817.094.126.097.319.173.602.4-.107.794-.156 1.136-.317 1.349-.633 2.728-1.224 4.003-1.985.73-.435 1.268-1.188 1.926-1.759.249-.216.645-.499.882-.431.255.073.591.55.554.803-.067.471-.283 1.002-.612 1.335-.433.438-1.022.726-1.564 1.045-1.139.672-2.037 1.535-2.62 2.758-.931 1.951-3.234 2.316-4.822.846-.144-.132-.496-.096-.737-.052-1.433.259-2.852.668-4.295.788-1.947.163-2.893-.961-2.802-3.025-1.075.631-2.116 1.38-3.266 1.883-2.204.964-4.485 1.567-6.891.625-.209-.082-.497-.002-.74.046-1.589.314-3.134.491-4.397-.893-.129-.142-.581-.09-.837.001-.861.305-1.686.716-2.554.993-.798.256-1.573.186-2.237-.461-.144-.141-.507-.137-.746-.086-.921.195-1.822.55-2.75.638-1.636.154-2.282-.55-2.157-2.316-.376.188-.693.323-.986.498-1.107.659-2.191 1.36-3.314 1.992-.709.4-1.517.266-1.771-.243-.347-.695 0-1.181.521-1.642.553-.49 1.072-1.025 1.552-1.588.125-.147.052-.465.069-.703-.218-.008-.478-.096-.646-.008-.81.424-1.624.851-2.385 1.354-1.933 1.277-4.018 2.204-6.263 2.741-.625.149-1.348.207-1.953.04-.508-.141-1.107-.588-1.296-1.05-.148-.362.16-1.044.465-1.423.343-.426.911-.673 1.38-.996.329-.226.701-.409.971-.69.152-.159.138-.478.199-.723-.266-.004-.577-.099-.786.008-.35.179-.636.482-.944.739-1.231 1.027-2.376 2.188-3.71 3.057-2.077 1.353-4.412 1.542-6.773.819-.502-.153-.903-.64-1.425-1.028-1.174.957-2.576 1.641-4.185 1.808-.539.058-1.094.082-1.629.021-1.117-.129-1.447-.438-1.923-1.65l-.583.266c-1.802.926-3.702 1.121-5.688.827-2.318-.343-2.642-2.315-1.714-3.778.646-1.018 1.715-1.821 2.728-2.532.779-.547 1.96-.23 2.338.368.397.627.186 1.719-.613 2.293-.66.475-1.465.743-2.197 1.123-.213.11-.391.288-.586.435.192.185.354.475.579.537 2.067.573 4.027.175 5.912-.748.072-.035.147-.108.176-.181.688-1.735 2.268-2.706 3.437-4.029.2-.228.388-.471.752-.911zm38.255 5.824c.857.031 3.745-1.545 4.149-2.265.389-.691.03-1.374-.734-1.392-1.145-.025-3.631 1.597-4.042 2.637-.224.565.043.999.627 1.02zm12.043-3.961c1.635-.078 4.737-2.328 5.163-3.574.057-.162.026-.511-.035-.529-.223-.065-.52-.111-.71-.013-1.796.926-2.968 2.507-4.418 4.116zm15.85 3.901l-.043.227c.313.066.649.241.937.182 1.101-.23 1.805-.971 2.443-2.065l-3.337 1.656zm-75.199-3.326c-.982.189-1.588.633-1.934 1.481 1.067-.047 1.732-.517 1.934-1.481zm16.284.125c-1.111.031-1.689.492-1.941 1.484.799-.282 1.604-.464 1.941-1.484zM99.479.342c-.288.408-.527.865-.874 1.214-1.312 1.323-2.663 2.609-3.992 3.915-.154.151-.27.34-.515.654 1.297-.142 2.422-.259 3.546-.388 5.246-.601 10.504-1.024 15.789-.932 1.632.029 3.265.144 4.89.299.571.054 1.12.347 1.678.531l-.018.279c-.422.048-.843.142-1.264.139-2.722-.021-5.445-.161-8.162-.072-3.264.106-6.521.392-9.78.622-2.173.154-4.351.289-6.511.557-.69.086-1.479.424-1.967.905-1.343 1.328-2.557 2.787-3.808 4.207-.186.211-.325.478-.429.741-.352.89.191 1.642 1.119 1.449 2.396-.499 4.5-1.528 6.321-3.247 1.104-1.041 2.489-1.794 3.799-2.592.222-.136.701.151 1.062.243-.104.379-.115.825-.332 1.121-.447.609-1.132 1.069-1.485 1.717-.6 1.096-.114 1.99 1.121 2.052 1.071.053 2.167-.078 3.229-.26.768-.131 1.299-.604 1.728-1.369.471-.841 1.225-1.583 2.001-2.18.733-.564 1.632-.948 2.508-1.279.312-.118.77.15 1.159.243l-.338.951c-.322.958-.97 1.028-1.829.753-.235-.075-.652.078-.841.27-.459.465-.898.975-1.226 1.537-.518.886-.062 1.729.946 1.597 1.319-.172 2.6-.624 3.906-.916.364-.081.759-.022 1.14-.027-.264.299-.473.765-.797.867-1.492.474-3.001.921-4.534 1.228-.935.186-1.821-.145-2.284-.856-1.768.335-3.431.715-5.114.943-1.01.138-2.09-.022-2.656-1.01-.33-.576-.363-1.322-.512-1.917-1.127.682-2.324 1.442-3.557 2.141-1.537.871-3.188 1.31-4.958.959-1.274-.251-1.904-1.229-1.392-2.418.442-1.025 1.12-1.976 1.829-2.85.707-.872 1.58-1.61 2.382-2.406l-.129-.194c-.271.02-.556.096-.812.042-.229-.048-.428-.238-.64-.366.136-.224.223-.569.416-.646.417-.167.906-.146 1.334-.293.521-.181 1.09-.361 1.499-.708 1.705-1.446 3.335-2.981 5.045-4.421.572-.483 1.3-.781 1.956-1.163l.353.334zM80.385 2.148c-.896.855-1.336.823-2.086.019-.51-.545-.097-.811.243-1.096.638-.535.771-.453 1.843 1.077zM104.361 1.972c.395-.609.799-1.248 1.487-.961.4.167.634.806.847 1.277.032.072-.425.445-.704.565-.924.4-1.092-.534-1.63-.881z"/></g></svg>